<svg width="24" height="25" viewBox="0 0 24 25" fill="none" xmlns="http://www.w3.org/2000/svg">
<path fill-rule="evenodd" clip-rule="evenodd" d="M12 8.32083C12.5522 8.32083 13 8.76854 13 9.32083V13.9042C13 14.4564 12.5522 14.9042 12 14.9042C11.4477 14.9042 11 14.4564 11 13.9042V9.32083C11 8.76854 11.4477 8.32083 12 8.32083Z" fill="#FFFFFF"/>
<path d="M11.9998 18.1527C12.6902 18.1527 13.2498 17.5931 13.2498 16.9027C13.2498 16.2124 12.6902 15.6527 11.9998 15.6527C11.3095 15.6527 10.7498 16.2124 10.7498 16.9027C10.7498 17.5931 11.3095 18.1527 11.9998 18.1527Z" fill="#FFFFFF"/>
<path fill-rule="evenodd" clip-rule="evenodd" d="M10.7559 2.44557C11.1305 2.21661 11.5609 2.09546 11.9999 2.09546C12.4389 2.09546 12.8694 2.21661 13.244 2.44557C13.6185 2.67453 13.9226 3.00242 14.1228 3.39313L14.1273 3.40185L21.7447 18.6368L21.7457 18.6387C21.928 19.0014 22.0148 19.4045 21.9978 19.81C21.9808 20.2163 21.8602 20.6114 21.6475 20.958C21.4348 21.3045 21.137 21.5909 20.7825 21.79C20.428 21.9891 20.0284 22.0942 19.6218 22.0955L19.6188 22.0955H4.38106L4.37803 22.0955C3.97143 22.0942 3.5719 21.9891 3.21737 21.79C2.86284 21.5909 2.56509 21.3045 2.35239 20.958C2.13969 20.6114 2.01911 20.2163 2.00209 19.81C1.9851 19.4044 2.07194 19.0011 2.25437 18.6384L2.25516 18.6368L9.87702 3.39311C10.0772 3.0024 10.3813 2.67453 10.7559 2.44557ZM11.9999 4.09546C11.929 4.09546 11.8595 4.11503 11.799 4.15201C11.7395 4.1884 11.691 4.24026 11.6586 4.30203L4.04261 19.5341L4.04121 19.5368C4.01166 19.5955 3.99759 19.6607 4.00034 19.7263C4.00309 19.792 4.02256 19.8558 4.05692 19.9117C4.09127 19.9677 4.13936 20.014 4.19662 20.0461C4.25357 20.0781 4.31771 20.0951 4.38301 20.0955H19.6169C19.6822 20.0951 19.7463 20.0781 19.8032 20.0461C19.8605 20.014 19.9086 19.9677 19.943 19.9117C19.9773 19.8558 19.9968 19.792 19.9995 19.7263C20.0023 19.6607 19.9882 19.5955 19.9587 19.5368L19.9573 19.5341L12.3412 4.30203C12.3089 4.24026 12.2604 4.1884 12.2009 4.15201C12.1404 4.11503 12.0708 4.09546 11.9999 4.09546Z" fill="#FFFFFF"/>
</svg>
