<svg width="23" height="24" viewBox="0 0 23 24" fill="none" xmlns="http://www.w3.org/2000/svg">
<path d="M1.34277 7.75932H21.6572C22.0234 7.75932 22.3388 7.62712 22.6033 7.37288C22.8678 7.11864 23 6.79322 23 6.41695C23 6.14237 22.939 5.87797 22.8169 5.64407C22.6847 5.41017 22.5117 5.21695 22.2778 5.08475L12.6139 0.254237C12.268 0.0813559 11.9018 0 11.5153 0C11.1287 0 10.7625 0.0813559 10.4166 0.244068L0.793454 5.11525C0.528969 5.22712 0.335692 5.41017 0.193277 5.65424C0.0712074 5.88814 0 6.15254 0 6.42712C0 6.79322 0.132242 7.11864 0.396727 7.38305C0.651039 7.63729 0.976559 7.76949 1.34277 7.76949V7.75932ZM5.91022 5.27797L11.4949 2.49153L17.0796 5.27797H5.91022Z" fill="#7B7986"/>
<path d="M18.1782 9.65085C17.8425 9.65085 17.5374 9.77288 17.3034 10.0068C17.0796 10.2407 16.9575 10.5356 16.9575 10.861V18.3864C16.9575 18.7322 17.0694 19.0271 17.3034 19.2712C17.5374 19.5153 17.8324 19.6271 18.1782 19.6271C18.5241 19.6271 18.8191 19.5051 19.0531 19.2712C19.2769 19.0373 19.3989 18.7424 19.3989 18.417V10.8915C19.3989 10.5458 19.287 10.2508 19.0531 10.0068C18.8191 9.76271 18.5241 9.65085 18.1782 9.65085Z" fill="#7B7986"/>
<path d="M3.96727 10.0068C3.74348 10.2407 3.62141 10.5356 3.62141 10.861V18.3864C3.62141 18.7322 3.7333 19.0271 3.96727 19.2712C4.20124 19.5153 4.49624 19.6271 4.84211 19.6271C5.18797 19.6271 5.48297 19.5051 5.71694 19.2712C5.94073 19.0373 6.0628 18.7424 6.0628 18.417V10.8915C6.0628 10.5458 5.95091 10.2508 5.71694 10.0068C5.48297 9.76271 5.18797 9.65085 4.84211 9.65085C4.49624 9.65085 4.20124 9.77288 3.96727 10.0068Z" fill="#7B7986"/>
<path d="M21.82 21.5186H1.2207C0.885007 21.5186 0.579832 21.6407 0.345865 21.8746C0.111897 22.1186 0 22.4136 0 22.7593C0 23.1051 0.101725 23.4 0.32552 23.6339C0.549314 23.878 0.844317 24 1.19018 24H21.7793C22.115 24 22.4202 23.878 22.6541 23.6441C22.8881 23.4 23 23.1051 23 22.7593C23 22.4136 22.8983 22.1186 22.6745 21.8847C22.4507 21.6407 22.1557 21.5186 21.8098 21.5186H21.82Z" fill="#7B7986"/>
<path d="M11.5051 9.65085C11.1694 9.65085 10.8642 9.77288 10.6303 10.0068C10.4065 10.2407 10.2844 10.5356 10.2844 10.861V18.3864C10.2844 18.7322 10.3963 19.0271 10.6303 19.2712C10.8642 19.5153 11.1592 19.6271 11.5051 19.6271C11.851 19.6271 12.146 19.5051 12.3799 19.2712C12.6037 19.0373 12.7258 18.7424 12.7258 18.417V10.8915C12.7258 10.5458 12.6139 10.2508 12.3799 10.0068C12.146 9.76271 11.851 9.65085 11.5051 9.65085Z" fill="#7B7986"/>
</svg>
