<svg width="24" height="24" viewBox="0 0 24 24" fill="none" xmlns="http://www.w3.org/2000/svg">
<path d="M22.1008 23.6607L13.9615 15.5182L15.5215 13.9576L23.6609 22.1001C23.887 22.3263 24 22.5864 24 22.8804C24 23.1744 23.887 23.4345 23.6609 23.6607C23.4348 23.8869 23.1748 24 22.8808 24C22.5869 24 22.3269 23.8869 22.1008 23.6607ZM2.70208 21.8287C1.11943 19.68 0.232021 17.2994 0.0398419 14.687C-0.152337 12.0746 0.350719 9.61493 1.54901 7.30789C1.59423 8.05428 1.75815 8.8855 2.04076 9.80153C2.32338 10.7176 2.72469 11.6732 3.2447 12.6684C3.76472 13.6636 4.38647 14.6927 5.10997 15.7557C5.83346 16.8188 6.6474 17.8592 7.55177 18.877L4.49952 21.9305C4.22821 22.2019 3.91733 22.3263 3.56689 22.3036C3.21644 22.281 2.92817 22.1227 2.70208 21.8287ZM8.94224 17.486C7.83438 16.3551 6.87349 15.1507 6.05956 13.8728C5.24562 12.5949 4.62952 11.3622 4.21125 10.1747C3.79298 8.98728 3.58384 7.89596 3.58384 6.90076C3.58384 5.90557 3.83254 5.13656 4.32995 4.59372C4.87257 4.00566 5.65824 3.70031 6.68696 3.67769C7.71568 3.65508 8.8518 3.84733 10.0953 4.25445C11.3388 4.66158 12.6162 5.26661 13.9276 6.06955C15.2389 6.87249 16.4259 7.8281 17.4885 8.93639L8.94224 17.486ZM21.9313 4.49194L18.879 7.54538C17.8842 6.64066 16.8611 5.82641 15.8098 5.10263C14.7585 4.37885 13.7184 3.76251 12.6897 3.25361C11.661 2.7447 10.6718 2.35454 9.72226 2.08312C8.77267 1.8117 7.91352 1.66469 7.1448 1.64207C9.47355 0.398077 11.9606 -0.139101 14.6059 0.0305344C17.2511 0.20017 19.659 1.08793 21.8295 2.69381C22.1234 2.91999 22.2817 3.20837 22.3043 3.55895C22.3269 3.90953 22.2026 4.22053 21.9313 4.49194Z" fill="#7B7986"/>
</svg>
