<svg width="24" height="24" viewBox="0 0 24 24" fill="none" xmlns="http://www.w3.org/2000/svg">
<path fill-rule="evenodd" clip-rule="evenodd" d="M4.93218 17.6536C4.54165 18.0442 4.54165 18.6773 4.93218 19.0679C5.3227 19.4584 5.95586 19.4584 6.34639 19.0679L12 13.4142L17.6586 19.0728C18.0491 19.4634 18.6823 19.4634 19.0728 19.0728C19.4633 18.6823 19.4633 18.0491 19.0728 17.6586L13.4142 12L19.0762 6.33809C19.4667 5.94756 19.4667 5.3144 19.0762 4.92387C18.6856 4.53335 18.0525 4.53335 17.6619 4.92387L12 10.5858L6.34694 4.93276C5.95641 4.54223 5.32325 4.54223 4.93272 4.93276C4.5422 5.32328 4.5422 5.95645 4.93272 6.34697L10.5858 12L4.93218 17.6536Z" fill="#3A4757"/>
</svg>
