<svg width="23" height="24" viewBox="0 0 23 24" fill="none" xmlns="http://www.w3.org/2000/svg">
<path d="M18.1799 9.65854C17.8489 9.65854 17.547 9.77561 17.3133 10.0098C17.0893 10.2439 16.9725 10.5268 16.9725 10.8585V18.3902C16.9725 18.7317 17.0796 19.0244 17.3133 19.2683C17.547 19.5024 17.8391 19.6195 18.1799 19.6195C18.5207 19.6195 18.8129 19.5024 19.0466 19.2683C19.2705 19.0341 19.3874 18.7512 19.3874 18.4195V10.8878C19.3874 10.5463 19.2803 10.2537 19.0466 10.0098C18.8129 9.77561 18.5207 9.65854 18.1799 9.65854Z" fill="#7B7986"/>
<path d="M21.666 7.74634C22.0262 7.74634 22.3379 7.61951 22.6008 7.36585C22.8637 7.1122 22.9903 6.79024 22.9903 6.41951C22.9903 6.14634 22.9318 5.89268 22.8053 5.65854C22.6787 5.42439 22.4937 5.23902 22.2697 5.10244L12.6003 0.253659C12.2595 0.0878049 11.8895 0 11.5 0C11.1105 0 10.7502 0.0780488 10.3997 0.243902L0.788738 5.12195C0.788738 5.12195 0.788738 5.12195 0.798476 5.12195L0.905589 5.39512L0.769263 5.13171C0.516088 5.23902 0.321338 5.41463 0.185013 5.65854C0.0584251 5.89268 0 6.14634 0 6.41951C0 6.79024 0.126588 7.1122 0.3895 7.36585C0.642676 7.61951 0.964014 7.74634 1.3243 7.74634H21.666Z" fill="#7B7986"/>
<path d="M21.8218 21.5415H1.20745C0.876376 21.5415 0.574513 21.6585 0.35055 21.8927C0.11685 22.1268 0.00973751 22.4293 0.00973751 22.7707C0.00973751 23.1122 0.11685 23.4049 0.331075 23.639C0.555038 23.8829 0.847163 24 1.18798 24H21.7925C22.1236 24 22.4255 23.8829 22.6592 23.6488C22.8929 23.4146 23 23.1122 23 22.7707C23 22.4293 22.8929 22.1366 22.6787 21.9024C22.4547 21.6585 22.1626 21.5415 21.8218 21.5415Z" fill="#7B7986"/>
<path d="M3.96317 10.0098C3.7392 10.2439 3.62235 10.5268 3.62235 10.8585V18.3902C3.62235 18.7317 3.72947 19.0341 3.96317 19.2683C4.19687 19.5024 4.48899 19.6195 4.82007 19.6195C5.15114 19.6195 5.45301 19.5024 5.67697 19.2683C5.90093 19.0341 6.01778 18.7512 6.01778 18.4195V10.8878C6.01778 10.5463 5.91067 10.2439 5.67697 10.0098C5.44327 9.77561 5.15114 9.65854 4.82007 9.65854C4.48899 9.65854 4.18713 9.77561 3.96317 10.0098Z" fill="#7B7986"/>
<path d="M11.5 9.65854C11.1689 9.65854 10.8671 9.77561 10.6431 10.0098C10.4191 10.2439 10.3023 10.5268 10.3023 10.8585V18.3902C10.3023 18.7317 10.4094 19.0341 10.6431 19.2683C10.8768 19.5024 11.1689 19.6195 11.5 19.6195C11.8311 19.6195 12.1329 19.5024 12.3666 19.2683C12.5906 19.0341 12.7075 18.7512 12.7075 18.4195V10.8878C12.7075 10.5463 12.6003 10.2537 12.3666 10.0098C12.1329 9.77561 11.8408 9.65854 11.5 9.65854Z" fill="#7B7986"/>
</svg>
