<svg width="24" height="24" viewBox="0 0 24 24" fill="none" xmlns="http://www.w3.org/2000/svg">
<path d="M22.2063 23.6937L14.0628 15.5568L15.5695 14.0513L23.713 22.1882C23.9043 22.3794 24 22.6303 24 22.941C24 23.2516 23.9043 23.5026 23.713 23.6937C23.4978 23.9088 23.2466 24.0106 22.9596 23.9991C22.6726 23.9867 22.4215 23.8849 22.2063 23.6937ZM2.00897 21.0053C1.33931 19.8822 0.83707 18.7112 0.502242 17.4925C0.167414 16.2738 0 15.0311 0 13.7646C0 11.9962 0.334828 10.2694 1.00448 8.58423C1.67414 6.89998 2.67862 5.38874 4.01794 4.05052C5.38117 2.6884 6.91181 1.67278 8.60987 1.00367C10.3079 0.334556 12.0299 0 13.7758 0C15.0673 0 16.3171 0.167278 17.5254 0.501834C18.7327 0.83639 19.8864 1.33822 20.9865 2.00734C21.5845 2.36579 21.9073 2.88531 21.9552 3.56589C22.003 4.24743 21.7638 4.85106 21.2377 5.37679L5.38117 21.2204C4.85501 21.7461 4.25136 21.9851 3.57022 21.9373C2.88813 21.8895 2.36771 21.5789 2.00897 21.0053ZM3.80269 19.7507L6.06278 17.4925C5.68012 16.9668 5.30942 16.4229 4.95067 15.8608C4.59193 15.2997 4.26906 14.7205 3.98206 14.123C3.69507 13.5256 3.4559 12.9043 3.26457 12.2591C3.07324 11.6139 2.92975 10.9567 2.83408 10.2876C2.26009 11.8648 2.06302 13.4778 2.24287 15.1267C2.42176 16.7756 2.9417 18.3169 3.80269 19.7507ZM7.64126 15.9511L15.9641 7.56335C14.9357 6.77476 13.8954 6.14723 12.8431 5.68076C11.7907 5.21525 10.7982 4.89885 9.86547 4.73158C8.93274 4.5643 8.08993 4.55235 7.33704 4.69573C6.5832 4.83911 6.00299 5.11393 5.59641 5.52017C5.16592 5.95032 4.88514 6.542 4.75408 7.29523C4.62206 8.0475 4.63354 8.88963 4.78852 9.82161C4.94445 10.7536 5.26158 11.7453 5.73991 12.7968C6.21824 13.8482 6.85202 14.8997 7.64126 15.9511ZM19.8386 3.7996C18.3558 2.91542 16.7892 2.38969 15.139 2.22241C13.4888 2.05513 11.8744 2.2463 10.296 2.79593C10.9895 2.89152 11.6535 3.04064 12.2877 3.24328C12.921 3.44688 13.5428 3.68585 14.1532 3.96019C14.7626 4.23548 15.3423 4.55235 15.8924 4.9108C16.4425 5.26926 16.9806 5.6516 17.5067 6.05785L19.8386 3.7996Z" fill="#7B7986"/>
</svg>
